<?xml version="1.0" encoding="utf-8"?>
<!-- Generator: Adobe Illustrator 27.8.0, SVG Export Plug-In . SVG Version: 6.00 Build 0)  -->
<svg version="1.1" id="Layer_1" xmlns="http://www.w3.org/2000/svg" xmlns:xlink="http://www.w3.org/1999/xlink" x="0px" y="0px"
	 viewBox="0 0 303.59 71.52" style="enable-background:new 0 0 303.59 71.52;" xml:space="preserve">
<style type="text/css">
	.st0{fill-rule:evenodd;clip-rule:evenodd;fill:#F68841;}
	.st1{fill-rule:evenodd;clip-rule:evenodd;fill:#212121;}
	.st2{fill:#F68841;}
	.st3{fill:#212121;}
</style>
<g>
	<polygon class="st0" points="34.71,31.45 46.82,23.57 46.82,39.59 34.71,47.47 	"/>
	<polygon class="st0" points="21.62,21.89 33.84,13.88 46.06,21.89 33.8,29.87 	"/>
	<polygon class="st0" points="20.87,39.59 20.87,23.58 32.88,31.45 32.88,47.47 	"/>
	<path class="st1" d="M33.8,71.52c-4.69,0-9.23-0.94-13.48-2.79c-3.75-1.64-7.15-3.92-10.11-6.8c-3.56-3.47-6.35-7.75-8.08-12.37
		C0.72,45.79,0,41.8,0,37.72V9.9l19.04,12.48v17.7c0,0.31,0.15,0.59,0.41,0.76l13.84,9.07c0.09,0.05,0.15,0.09,0.22,0.11l0.09,0.02
		c0.09,0.02,0.13,0.03,0.17,0.03c0.12-0.01,0.21-0.02,0.29-0.04c0.08-0.02,0.13-0.05,0.19-0.08l13.97-9.09
		c0.26-0.17,0.41-0.46,0.41-0.77v-17.7L67.6,9.97v27.75c0,4.05-0.71,8.02-2.11,11.8c-1.74,4.66-4.54,8.95-8.1,12.41
		c-2.92,2.85-6.29,5.12-10.02,6.76C43.07,70.56,38.51,71.52,33.8,71.52"/>
	<polygon class="st1" points="0.75,8.21 12.97,0.2 32.17,12.79 19.96,20.8 	"/>
	<polygon class="st1" points="35.51,12.79 54.62,0.28 66.84,8.28 47.73,20.8 	"/>
	<path class="st1" d="M116.08,40.25c0,4.57-1.22,8.18-3.63,10.71c-2.39,2.52-5.73,3.8-9.92,3.8c-3.82,0-6.78-1.08-8.8-3.2
		c-2.03-2.13-3.06-5.34-3.06-9.55V17.33h-7.3v25.25c0,6.13,1.69,10.87,5.01,14.08c3.32,3.21,7.89,4.83,13.58,4.83
		c3.49,0,6.64-0.75,9.36-2.22c1.95-1.06,3.63-2.43,4.99-4.11v5.93h7.05V17.33h-7.29V40.25z"/>
	<path class="st0" d="M268.11,17c-3.74,0-7.09,0.75-9.94,2.21c-2.08,1.07-3.85,2.47-5.28,4.19v-6.08h-7.05v43.76h7.29V38.16
		c0-4.52,1.26-8.09,3.74-10.62c2.48-2.52,5.91-3.81,10.21-3.81c3.81,0,6.77,1.07,8.8,3.2c2.03,2.13,3.06,5.32,3.06,9.47v24.69h7.29
		V35.83c0-6.07-1.66-10.78-4.93-14C278.03,18.63,273.59,17,268.11,17"/>
	<rect x="294.94" y="17.32" class="st2" width="7.29" height="43.76"/>
	<path class="st0" d="M298.62,9.7c1.39,0,2.58-0.48,3.53-1.44c0.95-0.95,1.44-2.14,1.44-3.53c0-1.29-0.49-2.41-1.45-3.34
		c-0.95-0.92-2.14-1.39-3.52-1.39c-1.39,0-2.58,0.48-3.53,1.44c-0.95,0.95-1.44,2.09-1.44,3.37c0,1.34,0.48,2.5,1.44,3.45
		C296.04,9.22,297.23,9.7,298.62,9.7"/>
	<path class="st1" d="M154.36,17c-3.74,0-7.09,0.75-9.94,2.21c-2.08,1.07-3.85,2.47-5.28,4.19v-6.08h-7.05v43.76h7.3V38.16
		c0-4.52,1.26-8.09,3.74-10.62c2.48-2.52,5.91-3.81,10.21-3.81c3.81,0,6.77,1.07,8.8,3.2c2.03,2.13,3.06,5.32,3.06,9.47v24.69h7.29
		V35.83c0-6.07-1.66-10.78-4.93-14C164.27,18.63,159.84,17,154.36,17"/>
	<path class="st1" d="M184.83,0c-1.39,0-2.58,0.48-3.53,1.44c-0.95,0.95-1.44,2.09-1.44,3.37c0,1.34,0.48,2.5,1.44,3.45
		c0.95,0.95,2.14,1.44,3.53,1.44c1.39,0,2.58-0.48,3.53-1.44c0.95-0.95,1.44-2.14,1.44-3.53c0-1.29-0.49-2.41-1.45-3.34
		C187.4,0.47,186.22,0,184.83,0"/>
	<rect x="181.14" y="17.31" class="st3" width="7.3" height="43.78"/>
	<path class="st0" d="M229.84,40.25c0,4.57-1.22,8.18-3.63,10.71c-2.39,2.52-5.73,3.8-9.92,3.8c-3.82,0-6.78-1.08-8.8-3.2
		c-2.03-2.13-3.06-5.34-3.06-9.55V17.33h-7.3v25.25c0,6.13,1.69,10.87,5.02,14.08c3.32,3.21,7.89,4.83,13.58,4.83
		c3.49,0,6.64-0.75,9.36-2.22c1.95-1.06,3.62-2.43,4.99-4.11v5.93h7.05V17.33h-7.29V40.25z"/>
</g>
</svg>
